<?xml version="1.0" encoding="iso-8859-1"?>
<!-- Generator: Adobe Illustrator 19.0.0, SVG Export Plug-In . SVG Version: 6.00 Build 0)  -->
<svg version="1.1" id="Capa_1" xmlns="http://www.w3.org/2000/svg" xmlns:xlink="http://www.w3.org/1999/xlink" x="0px" y="0px"
	 viewBox="0 0 512 512" style="enable-background:new 0 0 512 512;" xml:space="preserve">
<g>
	<g>
		<path d="M256,0C116.519,0,0,116.134,0,256c0,139.481,116.134,256,256,256c139.487,0,256-116.14,256-256
			C512,116.513,395.86,0,256,0z M256,482.01c-57.239-0.006-114.497-22.309-159.099-66.911
			C11.255,329.454,7.845,197.225,86.639,107.852l51.768,51.768c-4.434,7.964-7.479,16.835-8.762,26.316l-6.037,26.813
			C104.804,218.146,91,235.485,91,256v60c0,19.555,12.541,36.228,30,42.42V376c0,24.813,20.187,45,45,45s45-20.187,45-45v-15h90v15
			c0,24.813,20.187,45,45,45c14.643,0,27.67-7.033,35.893-17.895l22.256,22.256C361.321,463.121,308.673,482.015,256,482.01z
			 M346,301h45v15c0,8.271-6.729,15-15,15h-23.787l-90-90H376c8.271,0,15,6.729,15,15v15h-45c-8.284,0-15,6.716-15,15
			S337.716,301,346,301z M360.034,381.247C357.901,386.934,352.424,391,346,391c-8.271,0-15-6.729-15-15v-15h8.787L360.034,381.247z
			 M232.213,211l-52.725-52.725c7.084-4.608,15.508-7.275,24.479-7.275h104.066c22.647,0,41.843,16.946,44.652,39.418
			c0.06,0.482,0.144,0.961,0.25,1.435L357.247,211H232.213z M189.787,211h-35.034c4.695-20.854,4.435-19.577,4.561-20.581
			c0.349-2.795,0.953-5.505,1.785-8.107L189.787,211z M219.787,241l90,90H196h-60c-8.271,0-15-6.729-15-15v-15h45
			c8.284,0,15-6.716,15-15s-6.716-15-15-15h-45v-15c0-8.271,6.729-15,15-15H219.787z M181,361v15c0,8.271-6.729,15-15,15
			s-15-6.729-15-15v-15H181z M425.362,404.148L391,369.787V358.42c17.459-6.192,30-22.865,30-42.42v-60
			c0-20.515-13.804-37.855-32.608-43.251l-6.038-26.813C377.338,148.86,345.522,121,308.033,121H203.967
			c-17.195,0-33.187,5.874-45.957,15.797l-50.158-50.158C150.677,48.884,203.334,29.99,256,29.99
			c57.246,0,114.492,22.304,159.1,66.911C500.745,182.547,504.155,314.775,425.362,404.148z"/>
	</g>
</g>
<g>
</g>
<g>
</g>
<g>
</g>
<g>
</g>
<g>
</g>
<g>
</g>
<g>
</g>
<g>
</g>
<g>
</g>
<g>
</g>
<g>
</g>
<g>
</g>
<g>
</g>
<g>
</g>
<g>
</g>
</svg>
